<svg xmlns="http://www.w3.org/2000/svg" enable-background="new 0 0 32 32" viewBox="0 0 32 32" id="edit" fill="blue"><path d="M26.71002,0.94c-0.59003-0.59003-1.53003-0.59003-2.12,0L13.20001,12.32996c-0.17999,0.17004-0.29999,0.39001-0.38,0.63l-1.85999,6.21002c-0.16003,0.53003-0.01001,1.09998,0.38,1.48999c0.27997,0.29004,0.66998,0.44,1.06,0.44c0.13995,0,0.28998-0.02002,0.42999-0.06l6.20996-1.85999c0.24005-0.08002,0.46002-0.20001,0.63-0.38L31.06,7.40997C31.34003,7.13,31.5,6.75,31.5,6.34998c0-0.39996-0.15997-0.77997-0.44-1.06L26.71002,0.94z"></path><path d="M30,14.5c-0.82861,0-1.5,0.67188-1.5,1.5v10c0,1.37891-1.12158,2.5-2.5,2.5H6c-1.37842,0-2.5-1.12109-2.5-2.5V6c0-1.37891,1.12158-2.5,2.5-2.5h10c0.82861,0,1.5-0.67188,1.5-1.5S16.82861,0.5,16,0.5H6C2.96729,0.5,0.5,2.96777,0.5,6v20c0,3.03223,2.46729,5.5,5.5,5.5h20c3.03271,0,5.5-2.46777,5.5-5.5V16C31.5,15.17188,30.82861,14.5,30,14.5z"></path></svg>