<svg xmlns="http://www.w3.org/2000/svg" viewBox="0 0 32 32" width="36px" height="36px" fill="#FFFFFF"><path d="M16 31.5c8.547 0 15.5-6.953 15.5-15.5S24.547.5 16 .5.5 7.453.5 16 7.453 31.5 16 31.5zm0-28c6.893 0 12.5 5.607 12.5 12.5S22.893 28.5 16 28.5 3.5 22.893 3.5 16 9.107 3.5 16 3.5z"></path><path d="m10.543 18.545-.775 4.517a1.5 1.5 0 0 0 2.176 1.581L16 22.511l4.056 2.132a1.501 1.501 0 0 0 2.176-1.581l-.775-4.517 3.281-3.198a1.501 1.501 0 0 0-.83-2.558l-4.535-.66-2.028-4.108a1.499 1.499 0 0 0-2.69 0l-2.028 4.109-4.534.659a1.5 1.5 0 0 0-.831 2.558l3.281 3.198zm3.296-3.56c.488-.07.911-.378 1.129-.82L16 12.075l1.032 2.09c.218.442.64.75 1.13.82l2.306.335-1.67 1.628a1.502 1.502 0 0 0-.43 1.327l.394 2.298-2.064-1.084a1.504 1.504 0 0 0-1.396 0l-2.064 1.084.395-2.298a1.502 1.502 0 0 0-.432-1.327l-1.669-1.628 2.307-.335z"></path></svg>