<svg xmlns="http://www.w3.org/2000/svg" width="24" height="24" viewBox="0 0 6.35 6.35" id="save"><path d="M1.322 291.18a.797.797 0 0 0-.793.792v3.706c0 .435.358.793.793.793h3.706a.797.797 0 0 0 .793-.793v-3.176a.265.265 0 0 0-.076-.188l-1.06-1.059a.265.265 0 0 0-.117-.067zm0 .528h.266v1.323c0 .145.118.263.264.263h2.646a.265.265 0 0 0 .264-.263v-.95l.53.53v3.067a.257.257 0 0 1-.264.264H1.322a.257.257 0 0 1-.263-.264v-3.706c0-.15.112-.264.263-.264zm.795 0h2.116v1.06H2.117zm-.265 2.116a.265.265 0 0 0-.264.266v1.058c0 .146.118.263.264.264h2.646a.265.265 0 0 0 .264-.264v-1.058a.265.265 0 0 0-.264-.266zm.265.53h2.116v.529H2.117z" color="#000" font-family="sans-serif" font-weight="400" overflow="visible" transform="translate(0 -290.65)" style="line-height:normal;font-variant-ligatures:normal;font-variant-position:normal;font-variant-caps:normal;font-variant-numeric:normal;font-variant-alternates:normal;font-feature-settings:normal;text-indent:0;text-align:start;text-decoration-line:none;text-decoration-style:solid;text-decoration-color:#000;text-transform:none;text-orientation:mixed;shape-padding:0;isolation:auto;mix-blend-mode:normal"></path></svg>