<svg xmlns="http://www.w3.org/2000/svg" width="16" height="16" id="note" fill="#FFFFFF"><path d="m9.004.984-.018.018H1.004v15H12v-3.998h-1v2.998H2.004v-13H8.02l-.005 3H12v-1h-.01zm4.178 5.053.785.785-.524.524-.79-.78zM3 7.004v1h6v-1zm8.951.277.783.772-3.627 3.627-.785-.787zM3 9.004v1h4v-1zm0 2v1h3v-1zm4.758.74.498.496-.746.25zM3 13.004v1h2.006v-1z" color="#000" font-family="sans-serif" font-weight="400" overflow="visible" style="text-indent:0;text-align:start;line-height:normal;text-transform:none;block-progression:tb"></path></svg>